# xmcd
#
# Track frame offsets: 
#        150
#        20307
#        38112
#        58534
#        91256
#        121199
#        143433
#        164629
#        184770
#        205682
#        223732
#        246005
#        267979
#        289908
#        312208
#
# Disc length: 4414 seconds
#
# Revision: 6
# Processed by: cddbd v1.5.2PL0 Copyright (c) Steve Scherf et al.
# Submitted via: ExactAudioCopy v1.0b3
#
DISCID=d2113c0f
DTITLE=TM NETWORK - THE SINGLES 1
DYEAR=2008
DGENRE=Rock
TTITLE0=金曜日のライオン (Take it to the lucky)
TTITLE1=1974 (16光年の訪問者)
TTITLE2=アクシデント
TTITLE3=DRAGON THE FESTIVAL (ZOO MIX)
TTITLE4=YOUR SONG (''D'' MIX)
TTITLE5=Come on Let's Dance (This is the FANKS DYNA-MIX)
TTITLE6=GIRL
TTITLE7=All-Right All-Night (No Tears No Blood)
TTITLE8=Self Control (方舟に曳かれて)
TTITLE9=Get Wild
TTITLE10=KISS YOU
TTITLE11=RESISTANCE
TTITLE12=BEYOND THE TIME (メビウスの宇宙を越えて)
TTITLE13=SEVEN DAYS WAR
TTITLE14=BE TOGETHER
EXTD=YEAR: 2008
EXTT0=
EXTT1=
EXTT2=
EXTT3=
EXTT4=
EXTT5=
EXTT6=
EXTT7=
EXTT8=
EXTT9=
EXTT10=
EXTT11=
EXTT12=
EXTT13=
EXTT14=
PLAYORDER=
